<svg xmlns="http://www.w3.org/2000/svg" viewBox="0 0 512 512">
  <rect width="512" height="512" fill="#0066cc"/>

  <circle cx="196" cy="137" r="18" fill="#e8f0fb"/>
  <circle cx="316" cy="137" r="18" fill="#e8f0fb"/>

  <defs>
    <clipPath id="cardClip">
      <rect x="106" y="142" width="300" height="250" rx="26"/>
    </clipPath>
  </defs>

  <rect x="106" y="142" width="300" height="250" rx="26" fill="#ffffff"/>

  <g clip-path="url(#cardClip)">
    <rect x="106" y="142" width="100" height="46" fill="#078930"/>
    <rect x="206" y="142" width="100" height="46" fill="#fcdd09"/>
    <rect x="306" y="142" width="100" height="46" fill="#da121a"/>
  </g>

  <g>
    <rect x="126" y="204" width="76" height="78" rx="14" fill="#dbe7f5"/>
    <rect x="218" y="204" width="76" height="78" rx="14" fill="#f0b429"/>
    <rect x="310" y="204" width="76" height="78" rx="14" fill="#dbe7f5"/>
    <rect x="126" y="298" width="76" height="78" rx="14" fill="#dbe7f5"/>
    <rect x="218" y="298" width="76" height="78" rx="14" fill="#dbe7f5"/>
    <rect x="310" y="298" width="76" height="78" rx="14" fill="#dbe7f5"/>
  </g>

  <circle cx="256" cy="243" r="14" fill="#ffffff"/>
</svg>
